<svg id="svg" version="1.1" xmlns="http://www.w3.org/2000/svg" xmlns:xlink="http://www.w3.org/1999/xlink" width="400" height="400" viewBox="0, 0, 400,400"><g id="svgg"><path id="path0" d="M187.000 6.800 C 186.853 7.038,187.321 7.200,188.153 7.200 C 188.923 7.200,189.664 7.020,189.800 6.800 C 189.947 6.562,189.479 6.400,188.647 6.400 C 187.877 6.400,187.136 6.580,187.000 6.800 M192.600 6.800 C 192.736 7.020,192.432 7.226,191.924 7.257 C 191.416 7.288,191.720 7.429,192.600 7.571 C 194.124 7.816,194.068 7.844,191.414 8.155 C 189.472 8.383,188.583 8.348,188.480 8.041 C 188.314 7.543,186.692 7.441,186.234 7.900 C 186.069 8.064,184.824 8.146,183.467 8.081 C 181.598 7.992,181.145 8.070,181.600 8.402 C 182.059 8.738,181.682 8.822,180.000 8.758 C 175.601 8.589,174.402 8.747,174.368 9.500 C 174.350 9.918,174.256 9.999,174.135 9.700 C 174.024 9.425,173.398 9.200,172.743 9.200 C 172.051 9.200,171.656 9.032,171.800 8.800 C 172.114 8.292,169.897 8.266,169.380 8.771 C 169.171 8.976,168.460 9.222,167.800 9.320 C 167.140 9.417,167.680 9.444,169.000 9.380 C 170.774 9.294,171.087 9.348,170.200 9.585 C 169.540 9.761,168.404 9.927,167.676 9.953 C 166.948 9.979,166.456 10.167,166.583 10.372 C 166.709 10.577,166.225 10.718,165.506 10.686 C 164.788 10.654,163.412 10.776,162.449 10.958 C 161.197 11.194,160.777 11.161,160.973 10.844 C 161.311 10.297,159.875 10.247,158.895 10.772 C 158.513 10.976,156.600 11.440,154.644 11.803 C 152.688 12.166,150.798 12.618,150.444 12.808 C 150.090 12.997,148.450 13.458,146.800 13.831 C 145.150 14.204,143.620 14.645,143.400 14.812 C 143.180 14.978,141.830 15.431,140.400 15.820 C 138.970 16.208,137.620 16.658,137.400 16.820 C 137.180 16.981,135.830 17.433,134.400 17.824 C 132.970 18.214,131.445 18.773,131.011 19.067 C 130.577 19.360,129.990 19.600,129.707 19.600 C 129.423 19.600,128.428 19.935,127.496 20.345 C 126.563 20.755,124.990 21.409,124.000 21.799 C 120.285 23.260,106.908 29.742,102.800 32.071 C 101.590 32.757,100.036 33.622,99.346 33.993 C 98.657 34.363,96.994 35.417,95.651 36.333 C 94.308 37.250,93.114 38.000,92.998 38.000 C 92.883 38.000,91.550 38.900,90.038 40.000 C 88.526 41.100,87.165 42.000,87.014 42.000 C 86.864 42.000,85.388 43.035,83.736 44.300 C 82.083 45.565,80.432 46.780,80.066 47.000 C 75.078 49.999,46.000 79.034,46.000 81.016 C 46.000 81.163,45.096 82.389,43.991 83.741 C 40.016 88.607,39.600 89.151,39.600 89.493 C 39.600 89.684,38.790 90.953,37.800 92.314 C 36.810 93.674,36.000 94.890,36.000 95.016 C 36.000 95.141,35.244 96.357,34.321 97.717 C 33.397 99.077,32.111 101.272,31.463 102.595 C 30.814 103.918,29.890 105.540,29.410 106.200 C 28.652 107.240,25.029 114.498,22.821 119.400 C 22.424 120.280,21.653 121.990,21.106 123.200 C 20.560 124.410,19.890 126.030,19.617 126.800 C 19.344 127.570,18.801 128.830,18.410 129.600 C 18.018 130.370,17.571 131.711,17.416 132.580 C 17.261 133.448,16.879 134.523,16.567 134.969 C 16.255 135.414,16.000 136.150,16.000 136.604 C 16.000 137.059,15.650 138.116,15.223 138.954 C 14.796 139.792,14.331 141.046,14.190 141.739 C 13.905 143.145,13.253 145.382,12.775 146.600 C 12.602 147.040,12.345 147.940,12.205 148.600 C 11.384 152.460,10.909 154.312,10.512 155.200 C 10.265 155.750,9.862 157.541,9.615 159.179 C 9.368 160.818,9.012 162.348,8.824 162.579 C 8.521 162.951,7.903 167.059,7.346 172.400 C 7.243 173.390,7.009 174.560,6.828 175.000 C 5.012 179.392,4.439 226.879,6.230 224.518 C 6.710 223.885,6.776 224.073,6.787 226.100 C 6.800 228.330,7.252 228.913,8.108 227.800 C 8.298 227.553,8.642 227.697,9.008 228.176 C 9.333 228.604,9.600 228.744,9.600 228.489 C 9.600 228.234,9.870 228.129,10.200 228.255 C 10.628 228.420,10.802 228.215,10.805 227.543 C 10.814 226.093,11.251 224.784,11.645 225.028 C 11.840 225.149,12.000 225.856,12.000 226.600 C 12.000 227.344,12.180 228.064,12.400 228.200 C 12.620 228.336,12.800 229.517,12.800 230.824 C 12.800 232.141,12.978 233.200,13.200 233.200 C 13.420 233.200,13.600 234.100,13.600 235.200 C 13.600 236.419,13.776 237.200,14.052 237.200 C 14.522 237.200,14.348 234.474,13.592 230.000 C 11.378 216.901,11.593 190.131,14.026 176.000 C 15.012 170.273,15.241 168.911,15.570 166.800 C 15.759 165.590,16.033 164.150,16.179 163.600 C 16.766 161.386,17.211 159.602,18.225 155.400 C 19.704 149.268,24.759 134.147,26.815 129.704 C 27.247 128.772,27.600 127.925,27.600 127.822 C 27.600 127.720,28.167 126.413,28.860 124.918 C 31.952 118.251,33.954 114.298,36.290 110.248 C 37.671 107.855,38.800 105.838,38.800 105.767 C 38.800 105.695,40.555 102.989,42.700 99.752 C 44.845 96.515,46.780 93.579,47.000 93.227 C 48.549 90.750,56.244 81.451,61.576 75.614 C 86.729 48.080,118.496 29.727,157.400 20.253 C 164.299 18.573,169.809 17.622,177.200 16.834 C 228.903 11.326,277.946 25.244,318.573 56.953 C 326.427 63.083,339.556 76.480,346.647 85.600 C 351.592 91.961,352.800 93.601,352.800 93.955 C 352.800 94.163,352.959 94.393,353.154 94.467 C 353.492 94.594,361.200 106.219,361.200 106.602 C 361.200 106.704,361.721 107.646,362.357 108.694 C 365.605 114.044,369.370 121.505,372.604 129.000 C 372.984 129.880,373.539 131.157,373.837 131.838 C 374.135 132.519,374.928 134.679,375.600 136.638 C 376.272 138.597,376.997 140.513,377.211 140.895 C 377.425 141.277,377.600 141.941,377.600 142.371 C 377.600 142.801,377.759 143.251,377.952 143.370 C 378.146 143.490,378.403 143.996,378.524 144.494 C 378.731 145.344,379.083 146.609,379.975 149.700 C 381.314 154.341,382.502 158.909,382.862 160.800 C 383.092 162.010,383.434 163.810,383.622 164.800 C 383.810 165.790,384.161 167.500,384.403 168.600 C 385.082 171.688,385.566 174.683,385.988 178.400 C 386.200 180.270,386.551 183.240,386.768 185.000 C 388.658 200.349,387.967 223.881,385.231 237.400 C 384.225 242.365,384.120 243.600,384.703 243.600 C 385.118 243.600,385.195 243.287,385.000 242.400 C 384.799 241.484,384.895 241.138,385.405 240.943 C 385.948 240.734,386.025 240.360,385.812 238.943 C 385.593 237.480,385.658 237.200,386.216 237.200 C 386.758 237.200,386.854 236.869,386.737 235.400 C 386.636 234.129,386.745 233.600,387.106 233.600 C 387.587 233.600,387.513 238.360,386.992 241.003 C 386.786 242.046,387.203 242.685,388.200 242.860 C 388.640 242.937,389.219 243.270,389.487 243.600 C 389.904 244.113,389.976 244.070,389.987 243.300 C 389.994 242.805,389.826 242.400,389.613 242.400 C 389.399 242.400,389.333 242.118,389.466 241.773 C 389.767 240.987,390.276 241.487,390.512 242.800 C 390.665 243.653,390.699 243.613,390.746 242.524 C 390.775 241.822,390.955 241.152,391.144 241.035 C 391.333 240.918,391.607 239.782,391.754 238.511 C 392.110 235.426,392.823 231.588,393.223 230.600 C 394.549 227.331,395.269 199.082,394.346 186.600 C 394.134 183.740,393.873 180.230,393.765 178.800 C 393.657 177.370,393.407 175.840,393.209 175.400 C 392.812 174.516,392.608 173.223,391.982 167.600 C 391.749 165.510,391.319 163.260,391.027 162.600 C 390.734 161.940,390.372 160.251,390.222 158.846 C 390.071 157.442,389.709 155.912,389.417 155.446 C 389.126 154.981,388.769 153.700,388.626 152.600 C 388.383 150.743,388.010 149.391,387.190 147.400 C 387.009 146.960,386.769 146.150,386.658 145.600 C 386.173 143.208,385.532 141.000,385.209 140.610 C 385.016 140.379,384.640 139.292,384.373 138.195 C 384.105 137.098,383.659 135.750,383.381 135.200 C 383.103 134.650,382.571 133.300,382.200 132.200 C 381.828 131.100,381.272 129.633,380.962 128.940 C 380.653 128.246,380.400 127.544,380.400 127.378 C 380.400 127.213,379.860 125.935,379.200 124.538 C 378.540 123.141,378.000 121.876,378.000 121.727 C 378.000 121.451,373.807 112.685,373.155 111.600 C 372.957 111.270,372.488 110.370,372.113 109.600 C 371.738 108.830,371.220 107.930,370.961 107.600 C 370.701 107.270,369.986 106.010,369.371 104.800 C 368.756 103.590,367.746 101.848,367.126 100.928 C 366.507 100.008,366.000 99.166,366.000 99.056 C 366.000 98.946,365.280 97.773,364.400 96.448 C 363.520 95.123,362.800 93.925,362.800 93.786 C 362.800 93.648,361.720 92.138,360.400 90.432 C 359.080 88.725,358.000 87.211,358.000 87.067 C 358.000 86.691,353.357 80.666,352.401 79.801 C 351.960 79.402,351.600 78.902,351.600 78.690 C 351.600 76.848,324.051 49.200,322.216 49.200 C 322.080 49.200,320.290 47.850,318.238 46.200 C 316.187 44.550,314.405 43.200,314.279 43.200 C 314.153 43.200,312.616 42.120,310.864 40.800 C 309.112 39.480,307.513 38.400,307.310 38.400 C 307.107 38.400,306.055 37.770,304.972 37.000 C 303.889 36.230,302.841 35.600,302.643 35.600 C 302.445 35.600,301.274 34.930,300.041 34.112 C 298.809 33.293,296.270 31.845,294.400 30.894 C 292.530 29.944,290.550 28.910,290.000 28.598 C 288.464 27.726,278.807 23.200,278.485 23.201 C 278.328 23.202,277.480 22.859,276.600 22.439 C 273.553 20.987,271.393 20.086,269.800 19.604 C 268.920 19.338,267.468 18.778,266.574 18.360 C 265.679 17.942,264.716 17.600,264.434 17.600 C 264.152 17.600,263.354 17.340,262.660 17.022 C 261.967 16.704,260.320 16.143,259.000 15.774 C 257.680 15.405,256.420 14.976,256.200 14.819 C 255.980 14.663,254.270 14.204,252.400 13.800 C 250.530 13.396,248.820 12.937,248.600 12.780 C 248.380 12.624,246.670 12.199,244.800 11.836 C 242.930 11.474,241.040 11.010,240.600 10.806 C 239.649 10.366,232.115 9.177,230.752 9.253 C 230.052 9.291,230.171 9.383,231.200 9.600 C 232.557 9.886,232.563 9.895,231.400 9.907 C 230.025 9.922,227.737 9.305,228.924 9.240 C 230.133 9.173,229.239 8.400,227.953 8.400 C 227.174 8.400,226.849 8.556,227.028 8.845 C 227.225 9.164,226.697 9.199,225.151 8.970 C 223.968 8.794,221.650 8.671,220.000 8.695 C 217.877 8.727,217.234 8.631,217.800 8.369 C 218.359 8.110,217.816 8.039,216.000 8.135 C 214.570 8.211,213.085 8.078,212.700 7.840 C 212.186 7.522,211.783 7.543,211.181 7.919 C 210.579 8.295,209.548 8.348,207.281 8.120 L 204.200 7.810 206.200 7.568 C 208.024 7.347,208.066 7.320,206.676 7.263 C 205.776 7.226,205.254 7.036,205.400 6.800 C 205.561 6.539,203.330 6.400,199.000 6.400 C 194.670 6.400,192.439 6.539,192.600 6.800 M209.400 6.800 C 209.536 7.020,210.277 7.200,211.047 7.200 C 211.879 7.200,212.347 7.038,212.200 6.800 C 212.064 6.580,211.323 6.400,210.553 6.400 C 209.721 6.400,209.253 6.562,209.400 6.800 M182.100 7.487 C 182.705 7.578,183.695 7.578,184.300 7.487 C 184.905 7.395,184.410 7.320,183.200 7.320 C 181.990 7.320,181.495 7.395,182.100 7.487 M214.900 7.487 C 215.505 7.578,216.495 7.578,217.100 7.487 C 217.705 7.395,217.210 7.320,216.000 7.320 C 214.790 7.320,214.295 7.395,214.900 7.487 M176.900 7.876 C 177.285 7.976,177.915 7.976,178.300 7.876 C 178.685 7.775,178.370 7.693,177.600 7.693 C 176.830 7.693,176.515 7.775,176.900 7.876 M221.600 8.020 C 222.590 8.197,224.120 8.330,225.000 8.317 C 226.559 8.294,226.548 8.285,224.600 7.982 C 221.736 7.535,219.069 7.570,221.600 8.020 M238.200 10.859 C 238.469 11.130,238.076 11.154,237.000 10.931 C 236.120 10.749,234.645 10.604,233.722 10.610 C 232.733 10.616,232.240 10.486,232.522 10.293 C 233.134 9.874,237.672 10.326,238.200 10.859 M159.400 11.600 C 158.960 11.789,158.150 11.935,157.600 11.925 C 156.693 11.907,156.711 11.877,157.800 11.600 C 159.466 11.176,160.386 11.176,159.400 11.600 M191.705 12.282 C 191.214 12.377,190.314 12.379,189.705 12.287 C 189.097 12.195,189.500 12.117,190.600 12.114 C 191.700 12.111,192.197 12.187,191.705 12.282 M209.507 12.286 C 208.906 12.377,207.826 12.379,207.107 12.290 C 206.388 12.201,206.880 12.126,208.200 12.124 C 209.520 12.122,210.108 12.195,209.507 12.286 M246.588 12.840 C 246.995 13.234,245.030 12.943,243.200 12.338 C 242.547 12.122,242.894 12.087,244.200 12.237 C 245.300 12.363,246.374 12.634,246.588 12.840 M154.767 12.544 C 154.295 12.950,152.357 13.193,152.590 12.816 C 152.732 12.587,153.317 12.400,153.890 12.400 C 154.464 12.400,154.858 12.465,154.767 12.544 M182.300 13.076 C 181.915 13.176,181.285 13.176,180.900 13.076 C 180.515 12.975,180.830 12.893,181.600 12.893 C 182.370 12.893,182.685 12.975,182.300 13.076 M218.700 13.076 C 218.315 13.176,217.685 13.176,217.300 13.076 C 216.915 12.975,217.230 12.893,218.000 12.893 C 218.770 12.893,219.085 12.975,218.700 13.076 M148.000 14.400 C 147.670 14.613,147.040 14.773,146.600 14.754 C 145.941 14.726,145.976 14.664,146.800 14.400 C 148.214 13.947,148.701 13.947,148.000 14.400 M190.892 19.059 C 189.325 19.716,188.514 26.421,189.714 28.793 C 190.968 31.271,194.060 30.741,194.824 27.918 C 196.192 22.865,193.935 17.782,190.892 19.059 M223.380 27.628 C 221.450 28.623,221.484 28.140,221.374 55.895 C 221.239 90.147,223.540 86.559,202.200 85.801 C 194.800 85.538,193.645 85.596,186.800 86.574 C 175.393 88.204,175.174 88.397,174.813 97.090 C 174.497 104.676,173.095 107.211,168.240 108.976 C 167.338 109.304,164.800 110.227,162.600 111.027 C 105.389 131.834,83.008 204.836,117.830 257.050 C 129.394 274.390,144.579 286.176,164.962 293.635 C 175.661 297.550,174.938 295.473,174.968 322.400 C 175.001 351.708,175.063 351.637,154.626 345.408 C 111.543 332.275,74.901 295.538,61.659 252.200 C 58.580 242.126,55.634 227.262,55.608 221.677 C 55.579 215.342,51.068 212.052,47.417 215.703 C 45.258 217.862,45.167 220.426,46.818 232.600 C 55.645 297.690,111.367 352.410,177.814 361.241 C 186.220 362.358,185.756 363.480,186.000 341.459 C 186.222 321.423,186.191 321.647,188.919 319.984 C 190.483 319.030,192.035 318.989,193.857 319.854 C 196.610 321.160,196.577 320.920,196.800 341.439 C 196.965 356.607,197.101 360.000,197.571 360.566 C 199.941 363.419,206.614 362.845,207.489 359.712 C 207.660 359.101,207.800 348.308,207.800 335.729 C 207.800 307.667,208.367 309.373,199.200 309.874 C 191.710 310.283,187.600 308.589,187.600 305.094 C 187.600 301.238,189.732 300.400,199.543 300.400 C 211.399 300.400,220.514 299.037,230.078 295.833 C 239.240 292.764,242.345 294.518,242.414 302.800 C 242.476 310.332,245.642 313.064,250.691 309.944 C 253.140 308.430,254.347 302.769,254.389 292.600 C 254.415 286.424,255.054 285.232,260.848 280.561 C 281.074 264.254,295.977 237.649,298.741 212.913 C 299.637 204.897,299.272 205.031,320.600 204.869 C 345.431 204.681,346.118 205.031,344.800 217.200 C 343.886 225.636,346.311 229.465,351.635 227.994 C 355.619 226.894,356.434 223.670,356.532 208.600 C 356.635 192.845,359.610 194.402,329.400 194.398 C 298.741 194.395,300.312 194.975,297.632 182.664 C 292.387 158.576,277.910 135.433,260.380 123.115 C 253.468 118.257,251.953 111.995,257.442 110.966 C 261.090 110.281,274.510 121.296,283.613 132.447 C 288.138 137.990,291.469 138.935,293.389 135.220 C 295.946 130.276,279.156 112.354,261.800 101.502 C 254.501 96.938,254.297 96.458,254.325 83.932 C 254.349 73.425,254.506 72.656,256.919 71.184 C 258.763 70.060,260.631 70.211,263.811 71.743 C 295.860 87.177,323.189 117.004,334.364 148.746 C 341.938 170.258,340.587 173.973,325.185 173.991 C 314.937 174.003,313.589 173.279,311.602 166.698 C 306.223 148.882,300.056 140.446,295.781 145.058 C 294.096 146.877,294.411 148.342,298.109 155.867 C 301.542 162.852,304.034 169.613,305.812 176.765 C 307.071 181.830,307.634 182.979,309.307 183.893 C 310.666 184.636,366.387 185.247,372.756 184.589 C 377.694 184.078,378.038 182.623,376.032 170.726 C 371.232 142.276,359.338 114.782,341.972 92.000 C 337.080 85.582,333.863 84.350,330.577 87.636 C 327.494 90.719,328.113 93.157,333.947 100.915 C 346.452 117.546,354.589 134.276,360.447 155.400 C 363.904 167.868,363.493 172.336,358.771 173.608 C 354.200 174.839,351.982 172.405,349.830 163.800 C 339.236 121.426,309.854 84.168,271.400 64.347 C 260.848 58.908,251.338 55.072,241.765 52.392 C 235.518 50.644,233.205 48.752,233.201 45.389 C 233.197 40.861,236.298 39.941,243.877 42.221 C 259.502 46.920,273.195 52.703,285.390 59.755 C 292.312 63.757,298.005 59.620,294.770 52.938 C 293.162 49.617,277.903 41.775,261.498 35.840 C 248.363 31.088,226.011 26.272,223.380 27.628 M147.800 32.332 C 125.886 38.922,103.392 50.611,87.400 63.718 C 82.482 67.749,81.825 72.112,85.719 74.885 C 88.605 76.940,90.841 76.144,97.800 70.584 C 113.377 58.139,131.069 49.349,154.867 42.232 C 159.882 40.732,161.731 37.885,160.455 33.625 C 159.332 29.877,156.818 29.620,147.800 32.332 M178.600 43.168 C 176.317 43.797,175.320 44.339,173.427 45.976 C 170.375 48.618,169.408 48.997,160.600 50.998 C 120.735 60.054,81.156 91.559,62.104 129.400 C 52.579 148.318,50.816 158.582,57.091 158.582 C 60.232 158.582,61.197 157.232,64.228 148.600 C 80.556 102.103,127.197 64.505,176.355 58.213 C 186.048 56.973,185.800 57.183,185.800 50.200 C 185.800 43.604,183.868 41.718,178.600 43.168 M200.777 43.167 C 197.164 44.307,196.923 44.951,196.728 54.000 C 196.482 65.454,195.742 66.346,186.072 66.849 C 135.818 69.465,89.457 105.708,71.800 156.182 C 68.280 166.246,67.286 170.508,64.631 186.924 C 63.091 196.445,54.051 196.558,54.447 187.051 C 54.886 176.523,54.376 175.200,49.883 175.200 C 46.119 175.200,45.144 176.546,44.193 183.053 C 42.679 193.403,41.879 194.063,30.465 194.390 L 23.129 194.600 22.165 195.722 C 20.482 197.680,20.945 222.486,22.730 225.980 C 24.701 229.841,31.283 229.637,33.526 225.646 C 34.317 224.240,34.402 223.504,34.417 217.946 C 34.457 204.014,32.090 205.055,64.333 204.800 L 89.666 204.600 90.790 203.342 C 92.886 200.996,92.693 196.027,90.460 194.832 C 90.016 194.594,87.873 194.400,85.699 194.400 C 76.156 194.400,73.532 191.448,74.970 182.330 C 84.860 119.620,134.860 76.429,197.600 76.400 C 204.412 76.397,205.543 76.079,207.078 73.737 C 208.044 72.264,208.187 47.918,207.244 45.681 C 206.396 43.671,203.162 42.414,200.777 43.167 M240.281 60.784 C 243.042 62.468,242.986 62.006,243.128 84.000 C 243.266 105.520,243.145 107.156,241.285 108.891 C 238.712 111.289,237.517 111.326,230.522 109.222 C 221.668 106.558,215.609 105.526,207.502 105.299 C 197.523 105.020,196.800 105.446,196.800 111.598 C 196.800 115.675,197.512 116.615,200.846 116.937 C 202.031 117.051,205.880 117.417,209.400 117.749 C 266.079 123.099,300.666 182.795,278.193 236.482 C 264.071 270.216,223.204 292.629,187.140 286.418 C 130.452 276.656,98.643 215.874,123.566 164.937 C 135.158 141.245,157.543 123.354,181.314 118.782 C 185.598 117.959,185.762 117.636,186.029 109.495 C 186.437 97.030,187.721 96.000,202.854 96.000 C 210.820 96.000,218.043 96.631,223.701 97.821 C 232.582 99.689,232.540 99.776,232.800 79.128 C 232.993 63.801,233.029 63.218,233.839 62.128 C 235.475 59.926,238.007 59.398,240.281 60.784 M320.200 67.150 C 317.703 68.703,312.400 74.624,312.406 75.851 C 312.418 78.072,314.044 79.134,316.091 78.259 C 318.349 77.294,324.400 70.734,324.400 69.252 C 324.400 66.792,322.391 65.786,320.200 67.150 M62.110 86.840 C 60.961 87.575,56.904 92.766,51.493 100.424 C 39.506 117.386,29.321 142.065,24.430 166.000 C 21.291 181.366,21.878 185.200,27.372 185.200 C 31.745 185.200,33.191 183.176,34.390 175.374 C 38.506 148.591,52.718 115.126,66.524 99.711 C 70.809 94.927,72.022 91.324,70.255 88.628 C 68.569 86.055,64.671 85.199,62.110 86.840 M276.269 93.617 C 273.509 95.788,274.690 99.273,279.553 103.310 C 295.395 116.457,310.225 136.525,315.978 152.600 C 317.920 158.028,320.202 159.784,323.411 158.322 C 326.484 156.922,326.364 154.097,322.888 146.000 C 316.372 130.821,307.451 117.789,295.288 105.681 C 283.573 94.018,279.247 91.275,276.269 93.617 M153.000 93.743 C 149.263 94.972,136.146 102.569,130.312 106.882 C 117.997 115.987,106.000 129.274,106.000 133.807 C 106.000 139.488,111.002 138.951,116.249 132.707 C 126.803 120.147,136.509 112.695,151.870 105.362 C 158.634 102.132,159.237 101.569,159.515 98.220 C 159.826 94.472,156.898 92.461,153.000 93.743 M196.713 126.612 C 196.555 126.774,194.305 127.053,191.713 127.231 C 184.185 127.748,172.628 131.152,169.375 133.811 L 168.200 134.771 169.837 134.786 C 170.737 134.794,173.977 134.273,177.037 133.628 C 190.578 130.776,200.722 130.226,210.869 131.794 C 220.811 133.330,224.141 133.913,226.721 134.567 C 233.937 136.398,233.116 134.400,225.430 131.422 C 218.191 128.617,211.664 127.161,205.659 127.010 C 203.756 126.962,201.030 126.787,199.600 126.619 C 198.170 126.452,196.871 126.449,196.713 126.612 M98.400 144.978 C 93.186 147.826,83.812 176.334,87.109 179.317 C 91.028 182.865,93.620 180.510,96.004 171.234 C 97.577 165.114,100.240 158.220,103.207 152.587 C 106.240 146.828,103.360 142.269,98.400 144.978 M192.800 145.785 C 179.907 147.669,165.077 155.902,158.271 164.954 C 154.180 170.394,153.498 171.457,151.564 175.400 C 147.158 184.384,144.615 203.022,146.431 213.027 C 147.022 216.288,149.918 225.847,150.906 227.800 C 163.246 252.198,185.673 263.820,210.334 258.597 C 220.683 256.405,234.714 247.861,240.192 240.415 C 240.926 239.417,242.013 238.150,242.606 237.600 C 244.099 236.217,245.581 233.996,247.708 229.958 C 248.705 228.065,249.711 226.175,249.944 225.758 C 252.107 221.890,255.227 210.075,254.659 207.904 C 254.551 207.492,254.630 204.241,254.834 200.678 C 256.652 168.877,225.204 141.048,192.800 145.785 M371.043 194.132 C 368.055 195.034,367.836 195.732,367.531 205.329 C 366.264 245.283,356.099 276.710,335.347 304.839 C 330.793 311.013,330.365 314.630,333.894 317.116 C 338.093 320.073,340.258 318.580,347.373 307.822 C 364.605 281.768,373.060 259.358,377.655 227.565 C 378.983 218.374,379.226 197.042,378.021 195.514 C 376.651 193.778,373.972 193.247,371.043 194.132 M87.549 214.315 C 83.000 214.873,83.554 226.525,88.863 241.939 C 95.288 260.594,99.990 266.490,104.691 261.789 C 106.607 259.873,106.404 258.698,102.875 251.278 C 97.822 240.655,95.046 232.351,93.555 223.400 C 92.202 215.275,91.266 213.858,87.549 214.315 M310.034 214.701 C 308.096 215.693,307.200 217.623,307.200 220.805 C 307.200 225.001,308.522 225.993,314.116 225.998 C 322.774 226.005,323.640 232.163,317.404 249.367 C 302.981 289.157,269.545 318.585,229.427 326.799 C 220.936 328.537,221.459 326.845,221.272 353.147 C 221.102 377.014,221.211 379.248,222.620 380.656 C 226.446 384.482,263.576 374.416,284.834 363.789 C 299.287 356.564,300.697 355.138,297.608 350.874 C 294.895 347.129,292.372 346.860,287.068 349.752 C 273.291 357.261,263.862 361.209,248.663 365.830 C 238.807 368.827,235.699 368.649,234.176 365.004 C 232.288 360.485,234.751 357.924,243.200 355.620 C 286.148 343.912,320.104 315.408,339.580 274.712 C 347.385 258.404,349.507 248.995,345.878 246.782 C 342.119 244.490,339.221 246.637,337.205 253.207 C 324.788 293.654,293.084 326.730,251.953 342.148 C 238.938 347.027,236.307 347.306,234.113 344.041 C 231.054 339.487,233.881 336.241,243.400 333.380 C 265.299 326.798,283.896 314.682,299.872 296.586 C 318.808 275.137,329.812 251.605,333.418 224.848 C 334.355 217.899,333.794 215.364,331.114 214.430 C 328.869 213.647,311.660 213.868,310.034 214.701 M67.647 215.052 C 65.053 216.869,65.238 224.139,68.242 238.486 C 71.181 252.520,74.213 258.533,78.350 258.533 C 82.896 258.533,83.360 255.452,80.220 246.097 C 77.857 239.055,76.021 231.252,75.019 224.000 C 73.772 214.973,71.572 212.303,67.647 215.052 M304.526 234.176 C 303.017 234.843,302.425 235.901,300.554 241.275 C 299.782 243.496,298.011 247.584,296.620 250.360 C 293.686 256.216,293.204 257.707,293.674 259.482 C 294.346 262.019,297.459 262.810,300.041 261.100 C 302.311 259.597,309.297 244.354,310.177 238.982 C 310.776 235.329,307.746 232.753,304.526 234.176 M28.167 239.566 C 24.257 241.250,24.092 244.221,27.278 255.600 C 32.826 275.413,41.406 292.964,54.498 311.276 C 59.881 318.806,61.720 319.876,65.200 317.500 C 69.149 314.805,68.825 311.093,64.092 304.805 C 53.659 290.944,42.362 267.027,37.413 248.320 C 35.307 240.362,32.497 237.701,28.167 239.566 M387.647 243.744 C 387.338 244.116,387.481 244.240,388.217 244.240 C 389.297 244.240,389.526 243.811,388.629 243.467 C 388.315 243.346,387.873 243.471,387.647 243.744 M388.955 249.513 C 388.690 249.683,388.632 250.125,388.812 250.600 C 389.085 251.323,389.141 251.334,389.395 250.713 C 389.762 249.814,389.518 249.149,388.955 249.513 M287.817 269.884 C 286.317 270.280,285.117 271.356,282.819 274.368 C 281.547 276.036,278.311 279.522,275.627 282.115 C 269.188 288.336,268.218 290.829,271.244 293.376 C 273.726 295.464,275.284 294.637,282.224 287.546 C 292.847 276.691,294.354 274.096,291.700 271.221 C 290.569 269.995,289.193 269.521,287.817 269.884 M107.631 271.036 C 104.472 273.693,106.398 277.285,117.053 288.614 C 122.753 294.675,124.585 295.539,127.156 293.376 C 130.711 290.385,129.412 288.298,114.167 272.519 C 111.304 269.556,109.796 269.214,107.631 271.036 M94.353 282.601 C 89.495 285.241,91.610 289.876,103.000 301.549 C 115.903 314.773,128.934 323.753,144.564 330.192 C 155.684 334.772,158.029 335.233,160.031 333.231 L 161.200 332.062 161.200 318.290 C 161.200 302.556,161.229 302.694,157.592 300.932 C 156.606 300.454,153.177 298.789,149.972 297.232 C 142.576 293.638,140.673 293.564,138.998 296.804 C 137.292 300.103,138.715 302.910,143.400 305.489 C 149.709 308.961,151.629 312.408,149.596 316.608 C 147.290 321.372,143.121 320.330,130.092 311.735 C 120.802 305.606,107.776 293.808,102.280 286.545 C 98.935 282.124,97.001 281.162,94.353 282.601 M223.347 307.509 C 220.858 309.525,220.576 315.757,222.900 317.385 C 225.158 318.966,228.596 317.257,229.063 314.322 C 229.883 309.162,226.412 305.026,223.347 307.509 M87.000 333.985 C 84.332 335.101,82.066 339.226,82.953 341.350 C 85.160 346.630,111.709 362.778,129.987 369.957 C 152.269 378.708,160.115 379.913,161.642 374.817 C 162.791 370.983,160.951 368.544,155.918 367.232 C 133.675 361.433,113.091 351.312,95.509 337.528 C 90.420 333.537,89.243 333.047,87.000 333.985 M116.188 384.794 C 117.045 385.231,117.819 385.514,117.910 385.423 C 118.128 385.205,115.779 384.000,115.135 384.000 C 114.858 384.000,115.332 384.357,116.188 384.794 M269.412 385.980 C 269.107 386.475,270.061 386.928,270.998 386.734 C 271.352 386.660,271.638 386.420,271.634 386.200 C 271.621 385.645,269.735 385.458,269.412 385.980 M129.600 387.000 C 129.600 387.412,129.862 387.608,130.300 387.524 C 131.143 387.361,131.090 386.652,130.221 386.471 C 129.859 386.395,129.600 386.616,129.600 387.000 M266.000 387.061 C 265.670 387.170,265.040 387.403,264.600 387.579 C 264.160 387.756,263.305 388.099,262.700 388.342 C 261.522 388.814,261.210 389.600,262.200 389.600 C 262.530 389.600,262.800 389.420,262.800 389.200 C 262.800 388.980,263.160 388.800,263.600 388.800 C 264.040 388.800,264.400 388.620,264.400 388.400 C 264.400 388.180,264.831 388.000,265.357 388.000 C 265.884 388.000,266.418 387.730,266.545 387.400 C 266.671 387.070,266.736 386.814,266.687 386.832 C 266.639 386.849,266.330 386.952,266.000 387.061 M131.798 387.603 C 131.485 388.109,132.599 388.563,133.400 388.255 C 133.730 388.129,134.000 387.839,134.000 387.613 C 134.000 387.081,132.126 387.073,131.798 387.603 M271.416 388.027 C 271.502 388.164,270.273 388.517,268.686 388.810 C 267.099 389.104,265.395 389.602,264.900 389.918 C 264.405 390.234,264.000 390.359,264.000 390.197 C 264.000 390.035,263.749 390.110,263.442 390.365 C 263.135 390.620,262.730 390.793,262.542 390.749 C 262.354 390.706,261.660 390.893,261.000 391.164 C 260.340 391.435,259.710 391.659,259.600 391.662 C 259.490 391.665,259.183 391.848,258.918 392.068 C 258.652 392.289,258.261 392.361,258.048 392.230 C 257.835 392.098,257.275 392.533,256.803 393.195 C 256.332 393.858,255.688 394.400,255.373 394.400 C 255.058 394.400,254.845 394.620,254.900 394.890 C 254.960 395.183,253.960 395.661,252.400 396.083 C 250.970 396.470,250.340 396.709,251.000 396.614 C 251.660 396.519,253.640 396.234,255.400 395.980 C 257.160 395.726,258.960 395.369,259.400 395.187 C 259.840 395.005,260.920 394.642,261.800 394.381 C 262.680 394.119,263.940 393.674,264.600 393.391 C 265.260 393.107,266.700 392.567,267.800 392.189 C 268.900 391.811,270.367 391.254,271.060 390.951 C 271.754 390.648,272.480 390.400,272.676 390.400 C 272.871 390.400,273.653 389.867,274.415 389.216 C 275.760 388.067,275.515 387.589,273.998 388.401 C 273.474 388.682,273.163 388.663,272.962 388.339 C 272.770 388.027,272.860 387.983,273.238 388.202 C 273.547 388.382,273.664 388.378,273.497 388.195 C 273.147 387.809,271.184 387.651,271.416 388.027 M134.400 388.400 C 134.400 388.620,134.861 388.800,135.424 388.800 C 136.004 388.800,136.340 388.627,136.200 388.400 C 136.064 388.180,135.603 388.000,135.176 388.000 C 134.749 388.000,134.400 388.180,134.400 388.400 M125.635 389.042 C 125.927 389.395,126.535 389.849,126.984 390.052 C 127.433 390.255,128.398 390.857,129.129 391.390 C 129.860 391.923,131.300 392.482,132.329 392.630 C 133.358 392.779,134.380 393.039,134.600 393.207 C 134.820 393.376,136.170 393.820,137.600 394.195 C 139.030 394.569,140.576 395.053,141.035 395.270 C 141.494 395.488,142.394 395.586,143.035 395.489 C 144.133 395.323,144.148 395.295,143.304 395.011 C 142.812 394.845,142.492 394.576,142.592 394.412 C 142.693 394.249,142.286 394.194,141.688 394.289 C 140.907 394.414,140.755 394.354,141.151 394.076 C 141.463 393.857,141.570 393.474,141.396 393.193 C 141.165 392.819,141.000 392.857,140.725 393.349 C 140.524 393.707,140.167 394.000,139.931 394.000 C 139.673 394.000,139.721 393.731,140.051 393.325 C 140.533 392.732,140.513 392.683,139.879 392.921 C 139.483 393.069,139.256 393.033,139.375 392.841 C 139.494 392.648,139.323 392.268,138.996 391.996 C 138.668 391.724,138.400 391.636,138.400 391.800 C 138.400 391.964,138.130 391.874,137.800 391.600 C 137.385 391.256,137.200 391.241,137.200 391.551 C 137.200 391.798,137.020 392.000,136.800 392.000 C 136.580 392.000,136.400 391.700,136.400 391.333 C 136.400 390.967,136.282 390.785,136.137 390.930 C 135.992 391.075,135.632 390.993,135.337 390.748 C 135.042 390.503,134.800 390.423,134.800 390.571 C 134.800 390.720,134.201 390.384,133.469 389.826 C 131.735 388.503,127.071 388.020,127.826 389.242 C 128.163 389.787,127.494 389.646,126.624 388.987 C 125.588 388.204,124.968 388.238,125.635 389.042 M138.800 389.837 C 138.800 390.456,139.823 390.611,140.172 390.045 C 140.292 389.850,140.033 389.597,139.596 389.483 C 139.080 389.348,138.800 389.473,138.800 389.837 M259.400 389.485 C 258.960 389.591,258.429 389.840,258.220 390.039 C 258.011 390.237,257.415 390.400,256.896 390.400 C 256.369 390.400,256.062 390.577,256.200 390.800 C 256.336 391.020,257.067 391.200,257.824 391.200 C 258.581 391.200,259.200 391.020,259.200 390.800 C 259.200 390.580,259.650 390.400,260.200 390.400 C 260.822 390.400,261.200 390.173,261.200 389.800 C 261.200 389.194,260.858 389.134,259.400 389.485 M248.133 397.055 C 248.133 397.661,249.030 397.799,249.372 397.245 C 249.492 397.050,249.263 396.805,248.862 396.700 C 248.420 396.585,248.133 396.724,248.133 397.055 M241.584 397.800 C 241.541 398.020,241.534 398.356,241.568 398.547 C 241.603 398.738,241.193 398.785,240.657 398.650 C 240.007 398.487,239.611 398.595,239.465 398.976 C 239.344 399.289,238.741 399.627,238.123 399.725 C 237.505 399.824,238.131 399.843,239.513 399.766 C 240.910 399.689,242.414 399.355,242.902 399.014 L 243.778 398.400 242.922 398.400 C 242.452 398.400,241.976 398.175,241.865 397.900 C 241.754 397.625,241.628 397.580,241.584 397.800 " stroke="none" fill="#040404" fill-rule="evenodd"></path><path id="path1" d="M189.830 6.752 C 189.710 6.945,187.675 7.220,185.306 7.363 C 178.525 7.772,172.235 8.464,171.820 8.848 C 171.595 9.057,171.949 9.200,172.687 9.200 C 173.372 9.200,174.024 9.425,174.135 9.700 C 174.256 9.999,174.350 9.918,174.368 9.500 C 174.402 8.747,175.601 8.589,180.000 8.758 C 181.682 8.822,182.059 8.738,181.600 8.402 C 181.145 8.070,181.598 7.992,183.467 8.081 C 184.824 8.146,186.069 8.064,186.234 7.900 C 186.692 7.441,188.314 7.543,188.480 8.041 C 188.583 8.348,189.472 8.383,191.414 8.155 C 194.068 7.844,194.124 7.816,192.600 7.571 C 191.720 7.429,191.416 7.288,191.924 7.257 C 192.432 7.226,192.736 7.020,192.600 6.800 C 192.295 6.307,190.128 6.269,189.830 6.752 M205.400 6.800 C 205.254 7.036,205.776 7.226,206.676 7.263 C 208.066 7.320,208.024 7.347,206.200 7.568 L 204.200 7.810 207.281 8.120 C 209.548 8.348,210.579 8.295,211.181 7.919 C 211.783 7.543,212.186 7.522,212.700 7.840 C 213.085 8.078,214.570 8.211,216.000 8.135 C 217.816 8.039,218.359 8.110,217.800 8.369 C 217.234 8.631,217.877 8.727,220.000 8.695 C 221.650 8.671,223.968 8.794,225.151 8.970 C 226.549 9.177,227.217 9.150,227.058 8.893 C 226.801 8.477,225.558 8.332,215.800 7.578 C 212.500 7.324,209.629 6.954,209.420 6.757 C 208.902 6.270,205.707 6.304,205.400 6.800 M165.400 9.864 C 163.200 10.181,161.220 10.631,161.000 10.862 C 160.721 11.155,161.145 11.183,162.400 10.955 C 163.390 10.775,164.788 10.654,165.506 10.686 C 166.225 10.718,166.709 10.577,166.583 10.372 C 166.456 10.167,166.948 9.979,167.676 9.953 C 168.404 9.927,169.540 9.768,170.200 9.600 C 172.230 9.083,169.933 9.210,165.400 9.864 M229.200 9.580 C 230.199 9.920,232.682 10.132,232.367 9.851 C 232.275 9.769,231.300 9.599,230.200 9.472 C 228.851 9.316,228.526 9.351,229.200 9.580 M232.522 10.293 C 232.240 10.486,232.733 10.616,233.722 10.610 C 234.645 10.604,236.120 10.749,237.000 10.931 C 238.076 11.154,238.469 11.130,238.200 10.859 C 237.672 10.326,233.134 9.874,232.522 10.293 M157.800 11.600 C 156.711 11.877,156.693 11.907,157.600 11.925 C 158.150 11.935,158.960 11.789,159.400 11.600 C 160.386 11.176,159.466 11.176,157.800 11.600 M189.705 12.287 C 190.314 12.379,191.214 12.377,191.705 12.282 C 192.197 12.187,191.700 12.111,190.600 12.114 C 189.500 12.117,189.097 12.195,189.705 12.287 M207.107 12.290 C 207.826 12.379,208.906 12.377,209.507 12.286 C 210.108 12.195,209.520 12.122,208.200 12.124 C 206.880 12.126,206.388 12.201,207.107 12.290 M243.200 12.338 C 245.030 12.943,246.995 13.234,246.588 12.840 C 246.374 12.634,245.300 12.363,244.200 12.237 C 242.894 12.087,242.547 12.122,243.200 12.338 M152.590 12.816 C 152.421 13.089,152.723 13.138,153.466 12.960 C 154.999 12.592,155.144 12.400,153.890 12.400 C 153.317 12.400,152.732 12.587,152.590 12.816 M180.900 13.076 C 181.285 13.176,181.915 13.176,182.300 13.076 C 182.685 12.975,182.370 12.893,181.600 12.893 C 180.830 12.893,180.515 12.975,180.900 13.076 M217.300 13.076 C 217.685 13.176,218.315 13.176,218.700 13.076 C 219.085 12.975,218.770 12.893,218.000 12.893 C 217.230 12.893,216.915 12.975,217.300 13.076 M146.800 14.400 C 145.976 14.664,145.941 14.726,146.600 14.754 C 147.040 14.773,147.670 14.613,148.000 14.400 C 148.701 13.947,148.214 13.947,146.800 14.400 M186.200 16.049 C 185.320 16.217,183.554 16.364,182.277 16.377 C 180.999 16.390,178.659 16.578,177.077 16.795 C 175.494 17.013,172.760 17.388,171.000 17.629 C 159.604 19.191,146.234 22.800,131.800 28.212 C 104.450 38.465,81.136 54.203,61.576 75.614 C 56.244 81.451,48.549 90.750,47.000 93.227 C 46.780 93.579,44.845 96.515,42.700 99.752 C 40.555 102.989,38.800 105.695,38.800 105.767 C 38.800 105.838,37.671 107.855,36.290 110.248 C 33.954 114.298,31.952 118.251,28.860 124.918 C 28.167 126.413,27.600 127.720,27.600 127.822 C 27.600 127.925,27.247 128.772,26.815 129.704 C 24.759 134.147,19.704 149.268,18.225 155.400 C 17.211 159.602,16.766 161.386,16.179 163.600 C 16.033 164.150,15.759 165.590,15.570 166.800 C 15.241 168.911,15.012 170.273,14.026 176.000 C 11.593 190.131,11.378 216.901,13.592 230.000 C 14.348 234.474,14.522 237.200,14.052 237.200 C 13.776 237.200,13.600 236.419,13.600 235.200 C 13.600 234.100,13.420 233.200,13.200 233.200 C 12.978 233.200,12.800 232.141,12.800 230.824 C 12.800 229.517,12.620 228.336,12.400 228.200 C 12.180 228.064,12.000 227.344,12.000 226.600 C 12.000 225.856,11.840 225.149,11.645 225.028 C 11.251 224.784,10.814 226.093,10.805 227.543 C 10.802 228.215,10.628 228.420,10.200 228.255 C 9.870 228.129,9.600 228.234,9.600 228.489 C 9.600 228.744,9.333 228.604,9.008 228.176 C 8.642 227.697,8.298 227.553,8.108 227.800 C 7.259 228.903,6.800 228.333,6.800 226.176 C 6.800 224.702,6.656 224.042,6.373 224.217 C 5.900 224.509,6.275 231.502,6.801 232.200 C 6.967 232.420,7.223 233.860,7.369 235.400 C 7.815 240.085,8.484 244.577,8.800 245.000 C 8.964 245.220,9.409 247.290,9.788 249.600 C 10.167 251.910,10.617 253.980,10.787 254.200 C 10.958 254.420,11.410 256.040,11.792 257.800 C 12.174 259.560,12.620 261.180,12.782 261.400 C 12.945 261.620,13.395 263.150,13.783 264.800 C 14.171 266.450,14.627 267.980,14.796 268.200 C 14.965 268.420,15.405 269.680,15.774 271.000 C 16.143 272.320,16.795 274.163,17.223 275.096 C 17.650 276.028,18.006 277.018,18.014 277.296 C 18.021 277.573,18.375 278.520,18.800 279.400 C 19.225 280.280,19.579 281.130,19.586 281.290 C 19.594 281.449,20.140 282.759,20.800 284.200 C 21.460 285.641,22.000 286.948,22.000 287.105 C 22.000 287.638,29.755 302.988,31.081 305.081 C 31.807 306.225,32.400 307.277,32.400 307.417 C 32.400 307.558,33.120 308.699,34.000 309.954 C 34.880 311.208,35.600 312.382,35.600 312.562 C 35.600 312.741,36.500 314.126,37.600 315.638 C 38.700 317.150,39.600 318.513,39.600 318.666 C 39.600 318.819,40.590 320.237,41.800 321.817 C 43.010 323.397,44.000 324.830,44.000 325.002 C 44.000 325.174,45.800 327.449,48.000 330.058 C 50.200 332.667,52.000 334.987,52.000 335.214 C 52.000 335.809,72.988 356.800,73.582 356.800 C 73.856 356.800,75.367 357.936,76.940 359.324 C 80.465 362.435,83.399 364.800,83.735 364.800 C 83.874 364.800,85.503 365.970,87.356 367.400 C 89.208 368.830,90.851 370.000,91.006 370.000 C 91.161 370.000,92.526 370.900,94.038 372.000 C 95.550 373.100,96.907 374.000,97.052 374.000 C 97.198 374.000,98.266 374.630,99.426 375.400 C 100.586 376.170,101.644 376.800,101.776 376.800 C 101.908 376.800,102.777 377.284,103.708 377.876 C 104.639 378.468,106.390 379.460,107.600 380.082 C 108.810 380.703,110.970 381.815,112.400 382.553 C 116.070 384.447,121.104 386.800,121.481 386.799 C 121.657 386.798,122.520 387.143,123.400 387.565 C 124.280 387.987,125.540 388.566,126.200 388.853 C 126.860 389.140,127.560 389.448,127.756 389.539 C 127.951 389.630,127.997 389.519,127.858 389.294 C 127.075 388.028,131.685 388.465,133.469 389.826 C 134.201 390.384,134.800 390.720,134.800 390.571 C 134.800 390.423,135.042 390.503,135.337 390.748 C 135.632 390.993,135.992 391.075,136.137 390.930 C 136.282 390.785,136.400 390.967,136.400 391.333 C 136.400 391.700,136.580 392.000,136.800 392.000 C 137.020 392.000,137.200 391.798,137.200 391.551 C 137.200 391.241,137.385 391.256,137.800 391.600 C 138.130 391.874,138.400 391.964,138.400 391.800 C 138.400 391.636,138.668 391.724,138.996 391.996 C 139.323 392.268,139.494 392.648,139.375 392.841 C 139.256 393.033,139.483 393.069,139.879 392.921 C 140.513 392.683,140.533 392.732,140.051 393.325 C 139.721 393.731,139.673 394.000,139.931 394.000 C 140.167 394.000,140.524 393.707,140.725 393.349 C 141.000 392.857,141.165 392.819,141.396 393.193 C 141.570 393.474,141.463 393.857,141.151 394.076 C 140.755 394.354,140.907 394.414,141.688 394.289 C 142.286 394.194,142.704 394.231,142.617 394.373 C 142.378 394.759,144.243 395.438,147.600 396.190 C 149.250 396.559,150.960 397.017,151.400 397.207 C 151.840 397.396,153.730 397.850,155.600 398.213 C 157.470 398.577,159.432 399.083,159.961 399.338 C 161.733 400.191,238.734 399.979,239.362 399.119 C 239.688 398.674,240.167 398.519,240.747 398.670 C 241.235 398.798,241.605 398.744,241.570 398.551 C 241.424 397.755,241.635 397.436,241.965 397.957 C 242.397 398.639,248.260 397.644,248.114 396.914 C 248.066 396.676,248.336 396.553,248.714 396.640 C 249.831 396.898,255.012 395.428,254.900 394.885 C 254.845 394.618,255.058 394.400,255.373 394.400 C 255.688 394.400,256.332 393.858,256.803 393.195 C 257.275 392.533,257.835 392.098,258.048 392.230 C 258.261 392.361,258.725 392.228,259.079 391.934 C 259.433 391.640,259.830 391.423,259.961 391.452 C 260.093 391.481,260.650 391.317,261.200 391.087 C 261.750 390.858,262.354 390.706,262.542 390.749 C 262.730 390.793,263.135 390.620,263.442 390.365 C 263.749 390.110,264.000 390.035,264.000 390.197 C 264.000 390.359,264.405 390.234,264.900 389.918 C 265.395 389.602,267.099 389.104,268.686 388.810 C 270.273 388.517,271.502 388.164,271.416 388.027 C 271.184 387.651,273.147 387.809,273.497 388.195 C 273.664 388.378,273.547 388.382,273.238 388.202 C 272.867 387.987,272.770 388.028,272.952 388.323 C 273.351 388.968,274.605 388.445,285.200 383.214 C 292.726 379.498,295.098 378.239,297.492 376.693 C 298.423 376.092,299.286 375.600,299.411 375.600 C 299.537 375.600,300.723 374.880,302.048 374.000 C 303.373 373.120,304.554 372.400,304.672 372.400 C 304.791 372.400,306.126 371.500,307.638 370.400 C 309.150 369.300,310.491 368.400,310.616 368.400 C 310.742 368.400,312.540 367.050,314.613 365.400 C 316.685 363.750,318.490 362.400,318.623 362.400 C 318.940 362.400,325.506 356.828,328.640 353.900 C 329.994 352.635,331.262 351.600,331.457 351.600 C 331.910 351.600,340.800 342.703,340.800 342.250 C 340.800 342.064,342.105 340.523,343.700 338.826 C 347.671 334.600,352.400 328.988,352.400 328.500 C 352.400 328.279,352.672 327.872,353.004 327.597 C 353.684 327.032,358.000 321.375,358.000 321.048 C 358.000 320.932,358.919 319.613,360.041 318.118 C 361.164 316.623,362.234 315.009,362.419 314.531 C 362.605 314.053,363.396 312.772,364.178 311.683 C 364.960 310.595,365.600 309.576,365.600 309.420 C 365.600 309.264,366.187 308.205,366.904 307.068 C 370.313 301.663,378.281 285.365,380.235 279.800 C 380.622 278.700,381.067 277.620,381.226 277.400 C 381.384 277.180,381.831 275.830,382.220 274.400 C 382.608 272.970,383.081 271.596,383.272 271.348 C 383.463 271.099,383.890 269.839,384.222 268.548 C 384.553 267.256,385.067 265.660,385.364 265.000 C 385.662 264.340,386.130 262.810,386.405 261.600 C 386.680 260.390,387.041 259.220,387.207 259.000 C 387.644 258.421,388.909 250.501,388.636 250.057 C 388.509 249.852,388.645 249.592,388.939 249.479 C 389.646 249.207,390.695 242.135,390.114 241.554 C 389.837 241.277,389.629 241.347,389.466 241.773 C 389.333 242.118,389.399 242.400,389.613 242.400 C 389.826 242.400,389.994 242.805,389.987 243.300 C 389.976 244.070,389.904 244.113,389.487 243.600 C 389.219 243.270,388.640 242.937,388.200 242.860 C 387.203 242.685,386.786 242.046,386.992 241.003 C 387.513 238.360,387.587 233.600,387.106 233.600 C 386.745 233.600,386.636 234.129,386.737 235.400 C 386.854 236.869,386.758 237.200,386.216 237.200 C 385.658 237.200,385.593 237.480,385.812 238.943 C 386.025 240.360,385.948 240.734,385.405 240.943 C 384.895 241.138,384.799 241.484,385.000 242.400 C 385.195 243.287,385.118 243.600,384.703 243.600 C 384.120 243.600,384.225 242.365,385.231 237.400 C 387.967 223.881,388.658 200.349,386.768 185.000 C 386.551 183.240,386.200 180.270,385.988 178.400 C 385.566 174.683,385.082 171.688,384.403 168.600 C 384.161 167.500,383.810 165.790,383.622 164.800 C 383.434 163.810,383.092 162.010,382.862 160.800 C 382.502 158.909,381.314 154.341,379.975 149.700 C 379.083 146.609,378.731 145.344,378.524 144.494 C 378.403 143.996,378.146 143.490,377.952 143.370 C 377.759 143.251,377.600 142.801,377.600 142.371 C 377.600 141.941,377.425 141.277,377.211 140.895 C 376.997 140.513,376.272 138.597,375.600 136.638 C 374.928 134.679,374.114 132.474,373.789 131.738 C 373.465 131.002,372.911 129.725,372.557 128.900 C 369.488 121.742,365.591 114.022,362.357 108.694 C 361.721 107.646,361.200 106.704,361.200 106.602 C 361.200 106.219,353.492 94.594,353.154 94.467 C 352.959 94.393,352.800 94.163,352.800 93.955 C 352.800 93.601,351.592 91.961,346.647 85.600 C 339.556 76.480,326.427 63.083,318.573 56.953 C 288.915 33.805,256.364 20.709,217.600 16.330 C 212.876 15.796,188.667 15.580,186.200 16.049 M194.103 20.052 C 196.821 23.710,194.695 31.361,191.292 30.165 C 188.625 29.227,188.297 20.147,190.892 19.059 C 191.960 18.611,193.351 19.041,194.103 20.052 M237.200 29.217 C 260.310 33.896,291.842 46.889,294.770 52.938 C 298.005 59.620,292.312 63.757,285.390 59.755 C 267.611 49.474,239.809 39.223,235.604 41.398 C 230.013 44.289,233.212 49.999,241.765 52.392 C 280.925 63.352,314.221 89.764,334.851 126.233 C 340.716 136.601,346.921 152.163,349.830 163.800 C 351.982 172.405,354.200 174.839,358.771 173.608 C 363.493 172.336,363.904 167.868,360.447 155.400 C 354.589 134.276,346.452 117.546,333.947 100.915 C 328.113 93.157,327.494 90.719,330.577 87.636 C 333.863 84.350,337.080 85.582,341.972 92.000 C 359.338 114.782,371.232 142.276,376.032 170.726 C 378.038 182.623,377.694 184.078,372.756 184.589 C 366.387 185.247,310.666 184.636,309.307 183.893 C 307.634 182.979,307.071 181.830,305.812 176.765 C 304.034 169.613,301.542 162.852,298.109 155.867 C 294.411 148.342,294.096 146.877,295.781 145.058 C 300.056 140.446,306.223 148.882,311.602 166.698 C 313.589 173.279,314.937 174.003,325.185 173.991 C 340.587 173.973,341.938 170.258,334.364 148.746 C 323.189 117.004,295.860 87.177,263.811 71.743 C 260.631 70.211,258.763 70.060,256.919 71.184 C 254.506 72.656,254.349 73.425,254.325 83.932 C 254.297 96.458,254.501 96.938,261.800 101.502 C 279.156 112.354,295.946 130.276,293.389 135.220 C 291.469 138.935,288.138 137.990,283.613 132.447 C 274.510 121.296,261.090 110.281,257.442 110.966 C 251.953 111.995,253.468 118.257,260.380 123.115 C 277.910 135.433,292.387 158.576,297.632 182.664 C 300.312 194.975,298.741 194.395,329.400 194.398 C 359.610 194.402,356.635 192.845,356.532 208.600 C 356.434 223.670,355.619 226.894,351.635 227.994 C 346.311 229.465,343.886 225.636,344.800 217.200 C 346.118 205.031,345.431 204.681,320.600 204.869 C 299.272 205.031,299.637 204.897,298.741 212.913 C 295.977 237.649,281.074 264.254,260.848 280.561 C 255.054 285.232,254.415 286.424,254.389 292.600 C 254.347 302.769,253.140 308.430,250.691 309.944 C 245.642 313.064,242.476 310.332,242.414 302.800 C 242.345 294.518,239.240 292.764,230.078 295.833 C 220.514 299.037,211.399 300.400,199.543 300.400 C 189.732 300.400,187.600 301.238,187.600 305.094 C 187.600 308.589,191.710 310.283,199.200 309.874 C 208.367 309.373,207.800 307.667,207.800 335.729 C 207.800 348.308,207.660 359.101,207.489 359.712 C 206.614 362.845,199.941 363.419,197.571 360.566 C 197.101 360.000,196.965 356.607,196.800 341.439 C 196.577 320.920,196.610 321.160,193.857 319.854 C 192.035 318.989,190.483 319.030,188.919 319.984 C 186.191 321.647,186.222 321.423,186.000 341.459 C 185.756 363.480,186.220 362.358,177.814 361.241 C 111.367 352.410,55.645 297.690,46.818 232.600 C 45.167 220.426,45.258 217.862,47.417 215.703 C 51.068 212.052,55.579 215.342,55.608 221.677 C 55.634 227.262,58.580 242.126,61.659 252.200 C 74.901 295.538,111.543 332.275,154.626 345.408 C 167.656 349.379,171.932 349.290,174.161 345.000 C 175.165 343.066,175.437 302.865,174.465 299.971 C 173.567 297.299,171.854 296.156,164.962 293.635 C 144.579 286.176,129.394 274.390,117.830 257.050 C 83.008 204.836,105.389 131.834,162.600 111.027 C 164.800 110.227,167.338 109.304,168.240 108.976 C 173.095 107.211,174.497 104.676,174.813 97.090 C 175.174 88.397,175.393 88.204,186.800 86.574 C 193.645 85.596,194.800 85.538,202.200 85.801 C 216.828 86.320,217.403 86.305,218.672 85.358 C 221.395 83.326,221.261 84.795,221.374 55.895 C 221.484 28.140,221.450 28.623,223.380 27.628 C 224.597 27.001,228.441 27.443,237.200 29.217 M159.197 31.398 C 162.947 34.791,160.666 40.497,154.867 42.232 C 131.069 49.349,113.377 58.139,97.800 70.584 C 92.154 75.095,91.011 75.754,88.834 75.754 C 84.401 75.754,81.759 70.946,84.102 67.143 C 87.456 61.699,113.599 45.297,128.800 39.099 C 146.446 31.904,156.846 29.269,159.197 31.398 M184.782 44.200 C 185.764 45.182,185.800 45.396,185.800 50.200 C 185.800 57.183,186.048 56.973,176.355 58.213 C 127.197 64.505,80.556 102.103,64.228 148.600 C 61.197 157.232,60.232 158.582,57.091 158.582 C 50.816 158.582,52.579 148.318,62.104 129.400 C 81.156 91.559,120.735 60.054,160.600 50.998 C 169.408 48.997,170.375 48.618,173.427 45.976 C 177.232 42.684,182.449 41.868,184.782 44.200 M205.630 43.815 C 207.662 44.866,207.800 45.885,207.800 59.818 C 207.800 76.824,208.064 76.395,197.600 76.400 C 138.915 76.427,89.598 115.487,77.026 171.897 C 72.705 191.282,73.907 194.400,85.699 194.400 C 87.873 194.400,90.016 194.594,90.460 194.832 C 92.693 196.027,92.886 200.996,90.790 203.342 L 89.666 204.600 64.333 204.800 C 32.090 205.055,34.457 204.014,34.417 217.946 C 34.402 223.504,34.317 224.240,33.526 225.646 C 31.283 229.637,24.701 229.841,22.730 225.980 C 20.945 222.486,20.482 197.680,22.165 195.722 L 23.129 194.600 30.465 194.390 C 41.879 194.063,42.679 193.403,44.193 183.053 C 45.144 176.546,46.119 175.200,49.883 175.200 C 54.376 175.200,54.886 176.523,54.447 187.051 C 54.051 196.558,63.091 196.445,64.631 186.924 C 67.286 170.508,68.280 166.246,71.800 156.182 C 89.457 105.708,135.818 69.465,186.072 66.849 C 195.742 66.346,196.482 65.454,196.728 54.000 C 196.842 48.708,197.047 46.290,197.448 45.512 C 198.707 43.067,202.615 42.257,205.630 43.815 M235.639 60.506 C 232.987 61.869,233.020 61.652,232.800 79.128 C 232.540 99.776,232.582 99.689,223.701 97.821 C 218.043 96.631,210.820 96.000,202.854 96.000 C 187.721 96.000,186.437 97.030,186.029 109.495 C 185.762 117.636,185.598 117.959,181.314 118.782 C 163.615 122.186,143.373 135.313,131.925 150.810 C 93.859 202.341,123.640 275.483,187.140 286.418 C 223.204 292.629,264.071 270.216,278.193 236.482 C 300.666 182.795,266.079 123.099,209.400 117.749 C 205.880 117.417,202.031 117.051,200.846 116.937 C 197.512 116.615,196.800 115.675,196.800 111.598 C 196.800 105.446,197.523 105.020,207.502 105.299 C 215.609 105.526,221.668 106.558,230.522 109.222 C 238.774 111.704,241.715 110.895,242.812 105.840 C 243.631 102.069,243.166 64.504,242.281 62.882 C 240.940 60.426,237.906 59.341,235.639 60.506 M323.600 67.200 C 326.170 69.770,317.187 80.085,313.891 78.349 C 311.338 77.005,311.759 75.364,315.700 71.299 C 320.478 66.372,321.988 65.588,323.600 67.200 M68.278 86.782 C 72.472 89.340,71.876 93.736,66.524 99.711 C 52.718 115.126,38.506 148.591,34.390 175.374 C 33.191 183.176,31.745 185.200,27.372 185.200 C 21.878 185.200,21.291 181.366,24.430 166.000 C 29.321 142.065,39.506 117.386,51.493 100.424 C 61.817 85.815,63.906 84.117,68.278 86.782 M281.171 93.585 C 294.914 100.596,318.508 131.702,325.146 151.560 C 326.136 154.522,325.393 157.419,323.411 158.322 C 320.202 159.784,317.920 158.028,315.978 152.600 C 310.225 136.525,295.395 116.457,279.553 103.310 C 276.993 101.185,275.931 100.011,275.424 98.743 C 273.686 94.398,276.976 91.445,281.171 93.585 M158.545 94.843 C 159.567 95.977,159.671 96.338,159.515 98.220 C 159.237 101.569,158.634 102.132,151.870 105.362 C 136.509 112.695,126.803 120.147,116.249 132.707 C 111.002 138.951,106.000 139.488,106.000 133.807 C 106.000 128.127,122.741 111.166,137.135 102.262 C 151.005 93.682,155.954 91.967,158.545 94.843 M205.659 127.010 C 211.664 127.161,218.191 128.617,225.430 131.422 C 233.116 134.400,233.937 136.398,226.721 134.567 C 224.141 133.913,220.811 133.330,210.869 131.794 C 200.722 130.226,190.578 130.776,177.037 133.628 C 173.977 134.273,170.737 134.794,169.837 134.786 L 168.200 134.771 169.375 133.811 C 172.628 131.152,184.185 127.748,191.713 127.231 C 194.305 127.053,196.555 126.774,196.713 126.612 C 196.871 126.449,198.170 126.452,199.600 126.619 C 201.030 126.787,203.756 126.962,205.659 127.010 M103.402 145.301 C 105.226 146.869,105.173 148.854,103.207 152.587 C 100.240 158.220,97.577 165.114,96.004 171.234 C 93.858 179.585,92.259 181.639,88.900 180.362 C 85.381 179.024,85.284 175.613,88.477 165.610 C 94.128 147.910,98.895 141.423,103.402 145.301 M207.088 145.827 C 235.147 149.911,256.344 174.262,254.834 200.678 C 254.630 204.241,254.551 207.492,254.659 207.904 C 255.227 210.075,252.107 221.890,249.944 225.758 C 249.711 226.175,248.705 228.065,247.708 229.958 C 245.581 233.996,244.099 236.217,242.606 237.600 C 242.013 238.150,240.926 239.417,240.192 240.415 C 238.518 242.690,232.046 248.405,228.375 250.849 C 202.930 267.790,169.255 259.810,153.907 233.200 C 150.573 227.421,150.221 226.616,148.479 220.800 C 143.460 204.045,146.281 181.402,154.863 169.554 C 161.888 159.854,166.290 156.057,176.087 151.246 C 186.935 145.919,196.377 144.269,207.088 145.827 M375.682 194.016 C 378.896 194.909,378.903 194.944,378.683 209.200 C 378.127 245.153,368.254 276.250,347.373 307.822 C 340.258 318.580,338.093 320.073,333.894 317.116 C 330.365 314.630,330.793 311.013,335.347 304.839 C 356.099 276.710,366.264 245.283,367.531 205.329 C 367.777 197.574,367.871 196.762,368.643 195.730 C 369.950 193.980,372.935 193.253,375.682 194.016 M91.088 215.314 C 92.218 216.336,92.572 217.494,93.555 223.400 C 95.046 232.351,97.822 240.655,102.875 251.278 C 106.404 258.698,106.607 259.873,104.691 261.789 C 99.990 266.490,95.288 260.594,88.863 241.939 C 86.018 233.680,83.673 221.023,84.395 217.824 C 85.170 214.386,88.628 213.089,91.088 215.314 M331.114 214.430 C 333.794 215.364,334.355 217.899,333.418 224.848 C 329.812 251.605,318.808 275.137,299.872 296.586 C 283.896 314.682,265.299 326.798,243.400 333.380 C 233.881 336.241,231.054 339.487,234.113 344.041 C 236.307 347.306,238.938 347.027,251.953 342.148 C 293.084 326.730,324.788 293.654,337.205 253.207 C 339.221 246.637,342.119 244.490,345.878 246.782 C 349.507 248.995,347.385 258.404,339.580 274.712 C 320.104 315.408,286.148 343.912,243.200 355.620 C 234.751 357.924,232.288 360.485,234.176 365.004 C 235.699 368.649,238.807 368.827,248.663 365.830 C 263.862 361.209,273.291 357.261,287.068 349.752 C 293.204 346.407,298.800 348.426,298.800 353.985 C 298.800 361.101,244.271 381.600,225.343 381.600 C 221.099 381.600,221.071 381.402,221.272 353.147 C 221.459 326.845,220.936 328.537,229.427 326.799 C 269.545 318.585,302.981 289.157,317.404 249.367 C 323.640 232.163,322.774 226.005,314.116 225.998 C 308.522 225.993,307.200 225.001,307.200 220.805 C 307.200 217.623,308.096 215.693,310.034 214.701 C 311.660 213.868,328.869 213.647,331.114 214.430 M72.490 215.185 C 73.676 216.118,74.166 217.826,75.019 224.000 C 76.021 231.252,77.857 239.055,80.220 246.097 C 82.774 253.706,82.931 255.393,81.263 257.260 C 79.042 259.746,75.403 258.824,73.499 255.293 C 69.387 247.670,64.327 221.422,66.134 217.096 C 67.232 214.467,70.376 213.522,72.490 215.185 M308.718 234.648 C 310.916 236.070,310.792 238.224,308.088 245.530 C 302.962 259.379,298.939 264.214,294.896 261.382 C 292.659 259.815,293.012 257.561,296.620 250.360 C 298.011 247.584,299.782 243.496,300.554 241.275 C 303.159 233.794,305.039 232.268,308.718 234.648 M33.705 240.235 C 35.313 241.432,35.969 242.862,37.413 248.320 C 42.362 267.027,53.659 290.944,64.092 304.805 C 68.825 311.093,69.149 314.805,65.200 317.500 C 61.124 320.283,58.144 317.575,48.143 302.000 C 37.695 285.728,28.394 263.627,25.190 247.459 C 23.956 241.232,29.139 236.836,33.705 240.235 M389.200 243.963 C 389.200 244.115,388.758 244.240,388.217 244.240 C 387.481 244.240,387.338 244.116,387.647 243.744 C 388.051 243.257,389.200 243.419,389.200 243.963 M291.700 271.221 C 294.354 274.096,292.847 276.691,282.224 287.546 C 275.284 294.637,273.726 295.464,271.244 293.376 C 268.218 290.829,269.188 288.336,275.627 282.115 C 278.311 279.522,281.547 276.036,282.819 274.368 C 286.641 269.358,289.158 268.466,291.700 271.221 M114.167 272.519 C 129.412 288.298,130.711 290.385,127.156 293.376 C 124.585 295.539,122.753 294.675,117.053 288.614 C 106.398 277.285,104.472 273.693,107.631 271.036 C 109.796 269.214,111.304 269.556,114.167 272.519 M99.181 283.045 C 99.864 283.620,101.259 285.195,102.280 286.545 C 107.776 293.808,120.802 305.606,130.092 311.735 C 143.121 320.330,147.290 321.372,149.596 316.608 C 151.629 312.408,149.709 308.961,143.400 305.489 C 138.715 302.910,137.292 300.103,138.998 296.804 C 140.673 293.564,142.576 293.638,149.972 297.232 C 153.177 298.789,156.606 300.454,157.592 300.932 C 161.229 302.694,161.200 302.556,161.200 318.290 L 161.200 332.062 160.031 333.231 C 156.005 337.256,132.050 326.240,114.993 312.519 C 106.156 305.411,95.064 293.841,92.768 289.337 C 90.355 284.604,95.285 279.767,99.181 283.045 M227.597 307.935 C 229.740 310.079,229.746 314.972,227.608 316.900 C 225.308 318.973,222.383 318.106,221.577 315.114 C 220.072 309.526,224.230 304.568,227.597 307.935 M90.474 333.953 C 90.983 334.147,93.249 335.756,95.509 337.528 C 113.091 351.312,133.675 361.433,155.918 367.232 C 160.951 368.544,162.791 370.983,161.642 374.817 C 160.115 379.913,152.269 378.708,129.987 369.957 C 111.709 362.778,85.160 346.630,82.953 341.350 C 81.422 337.686,86.686 332.509,90.474 333.953 M271.634 386.200 C 271.638 386.420,271.352 386.660,270.998 386.734 C 270.061 386.928,269.107 386.475,269.412 385.980 C 269.735 385.458,271.621 385.645,271.634 386.200 M130.921 386.995 C 130.965 387.212,130.685 387.450,130.300 387.524 C 129.862 387.608,129.600 387.412,129.600 387.000 C 129.600 386.304,130.782 386.299,130.921 386.995 M266.545 387.400 C 266.418 387.730,265.884 388.000,265.357 388.000 C 264.831 388.000,264.400 388.180,264.400 388.400 C 264.400 388.620,264.040 388.800,263.600 388.800 C 263.160 388.800,262.800 388.980,262.800 389.200 C 262.800 389.420,262.530 389.600,262.200 389.600 C 261.210 389.600,261.522 388.814,262.700 388.342 C 263.305 388.099,264.160 387.756,264.600 387.579 C 265.040 387.403,265.670 387.170,266.000 387.061 C 266.330 386.952,266.639 386.849,266.687 386.832 C 266.736 386.814,266.671 387.070,266.545 387.400 M134.000 387.613 C 134.000 387.839,133.730 388.129,133.400 388.255 C 132.599 388.563,131.485 388.109,131.798 387.603 C 132.126 387.073,134.000 387.081,134.000 387.613 M136.200 388.400 C 136.340 388.627,136.004 388.800,135.424 388.800 C 134.861 388.800,134.400 388.620,134.400 388.400 C 134.400 388.180,134.749 388.000,135.176 388.000 C 135.603 388.000,136.064 388.180,136.200 388.400 M140.172 390.045 C 139.823 390.611,138.800 390.456,138.800 389.837 C 138.800 389.473,139.080 389.348,139.596 389.483 C 140.033 389.597,140.292 389.850,140.172 390.045 M261.200 389.800 C 261.200 390.173,260.822 390.400,260.200 390.400 C 259.650 390.400,259.200 390.580,259.200 390.800 C 259.200 391.020,258.581 391.200,257.824 391.200 C 257.067 391.200,256.336 391.020,256.200 390.800 C 256.062 390.577,256.369 390.400,256.896 390.400 C 257.415 390.400,258.011 390.237,258.220 390.039 C 258.588 389.689,259.675 389.342,260.700 389.246 C 260.975 389.221,261.200 389.470,261.200 389.800 " stroke="none" fill="#fbfbfb" fill-rule="evenodd"></path></g></svg>